<?xml version="1.0" standalone="no"?>
<!DOCTYPE svg PUBLIC "-//W3C//DTD SVG 20010904//EN"
 "http://www.w3.org/TR/2001/REC-SVG-20010904/DTD/svg10.dtd">
<svg version="1.0" xmlns="http://www.w3.org/2000/svg"
 width="260.000000pt" height="260.000000pt" viewBox="0 0 260.000000 260.000000"
 preserveAspectRatio="xMidYMid meet">
<metadata>
Created by potrace 1.14, written by Peter Selinger 2001-2017
</metadata>
<g transform="translate(0.000000,260.000000) scale(0.100000,-0.100000)"
fill="#000000" stroke="none">
<path d="M475 2251 c-3 -2 -1 -9 4 -15 12 -14 -27 -14 -49 -1 -8 5 -11 4 -7
-2 4 -6 0 -13 -8 -17 -8 -3 -15 -1 -15 5 0 6 -5 7 -10 4 -6 -4 -8 -10 -5 -15
3 -5 0 -12 -6 -16 -8 -4 -9 -3 -5 4 4 7 2 12 -3 12 -6 0 -11 -5 -11 -11 0 -5
-4 -7 -10 -4 -5 3 -10 2 -10 -4 0 -6 -7 -7 -17 -4 -12 5 -14 3 -8 -8 8 -12 6
-12 -9 0 -9 8 -16 10 -15 5 4 -24 -2 -36 -17 -30 -11 4 -18 -1 -21 -15 -4 -16
-8 -17 -14 -7 -7 10 -9 10 -9 -3 0 -8 -12 -26 -27 -40 l-28 -24 25 28 c17 20
20 26 8 22 -10 -4 -23 -20 -30 -36 -7 -16 -18 -27 -25 -25 -7 3 -10 -1 -7 -8
3 -8 0 -17 -7 -22 -8 -5 -10 -3 -4 6 5 9 4 11 -4 6 -6 -4 -9 -12 -6 -17 4 -5
0 -9 -7 -9 -9 0 -9 -3 2 -10 13 -8 8 -14 -11 -12 -12 2 -41 -76 -34 -89 5 -8
4 -10 -3 -5 -7 4 -12 2 -12 -4 0 -6 -3 -9 -7 -7 -5 3 -8 -10 -9 -28 0 -21 4
-32 10 -29 6 3 3 -1 -6 -9 -10 -8 -15 -17 -11 -21 10 -10 11 -46 1 -40 -4 3
-6 -5 -4 -18 2 -13 -2 -29 -8 -37 -14 -18 -16 -84 -2 -93 6 -4 6 -11 -2 -21
-9 -11 -9 -14 3 -14 8 0 12 4 9 8 -2 4 0 10 5 13 11 7 9 -13 -3 -33 -7 -11 -5
-13 6 -8 14 5 15 1 8 -24 -5 -17 -5 -31 1 -35 5 -3 7 -9 4 -14 -3 -5 0 -12 6
-16 8 -5 9 -3 4 7 -8 12 -6 12 8 0 13 -10 15 -17 6 -27 -9 -11 -8 -14 0 -14 7
0 9 -5 5 -12 -5 -8 0 -7 11 2 17 14 18 13 12 -3 -4 -12 2 -26 21 -45 24 -24
25 -24 2 -7 l-25 20 25 -30 c36 -43 44 -52 36 -38 -5 9 -2 11 8 7 9 -3 14 -9
11 -14 -2 -4 3 -16 11 -26 9 -10 13 -13 9 -6 -3 6 -1 12 4 12 6 0 11 -7 11
-15 0 -9 7 -18 15 -21 8 -4 15 -13 15 -22 0 -8 3 -12 6 -9 9 8 74 -57 74 -75
0 -10 3 -9 10 2 8 13 10 12 10 -3 0 -10 4 -15 10 -12 5 3 7 0 4 -8 -3 -8 0
-18 7 -23 8 -5 10 -3 4 7 -4 8 6 1 23 -16 16 -16 28 -33 25 -37 -2 -5 1 -8 7
-8 15 0 80 -67 73 -74 -11 -11 42 -6 57 5 12 9 12 10 -4 5 -16 -5 -17 -4 -6 9
7 8 17 12 22 9 5 -3 12 3 15 15 3 12 10 21 15 21 5 0 6 5 2 11 -4 7 1 7 16 -1
13 -7 20 -8 16 -2 -3 6 -1 14 5 17 5 4 8 14 5 22 -3 8 -1 11 4 8 5 -3 18 -1
27 4 10 6 14 11 10 11 -5 0 5 12 22 26 17 14 28 31 24 37 -4 7 0 8 13 3 10 -4
15 -4 12 0 -4 4 4 15 17 26 14 10 24 22 24 26 -3 18 2 26 9 16 4 -6 14 -3 26
10 19 19 19 19 0 13 -19 -7 -19 -7 0 8 10 8 23 12 27 9 5 -3 9 2 9 10 0 9 5
16 11 16 6 0 8 7 5 16 -5 14 -4 15 9 4 13 -11 14 -10 9 5 -5 13 -4 16 4 11 7
-4 12 -1 12 10 0 13 3 14 14 5 12 -10 14 -8 12 13 -2 19 1 24 16 21 12 -3 16
0 12 7 -5 7 -2 9 9 5 11 -4 14 -2 10 9 -3 7 0 14 7 14 6 0 8 5 4 12 -5 7 -2 9
9 5 12 -5 15 0 11 21 -3 21 -2 24 6 12 8 -13 11 -13 19 -1 5 8 14 10 21 6 9
-5 11 -4 6 4 -9 14 12 43 25 36 4 -3 6 3 4 13 -2 13 2 19 13 18 9 0 16 5 14
12 -1 8 7 16 18 19 11 3 17 10 13 16 -4 6 0 8 10 4 12 -4 14 -2 10 10 -4 11
-2 14 5 9 7 -4 12 -2 12 4 0 6 5 8 12 4 8 -5 9 -2 5 10 -5 13 -1 19 14 23 11
3 18 11 15 19 -3 8 2 11 14 9 13 -3 17 1 13 11 -3 7 2 17 12 20 9 4 14 13 11
23 -4 11 -2 10 9 -3 8 -11 15 -16 15 -11 0 5 18 -10 40 -34 22 -23 40 -39 41
-34 0 4 4 -2 9 -14 5 -13 16 -23 24 -23 7 0 16 -9 19 -20 3 -11 13 -20 24 -20
15 0 16 -2 3 -10 -13 -8 -12 -10 3 -10 10 0 20 -7 23 -15 4 -8 12 -15 20 -15
8 0 11 -6 7 -15 -3 -10 0 -15 8 -13 8 2 13 -2 12 -9 -2 -7 6 -10 17 -8 12 2
18 0 14 -6 -3 -6 3 -17 15 -25 12 -9 19 -20 16 -25 -5 -8 16 -14 37 -10 5 0 7
-2 7 -7 -4 -23 3 -34 17 -28 14 6 15 4 4 -9 -7 -9 -9 -15 -4 -13 5 2 9 1 9 -2
1 -15 51 -54 57 -45 5 6 8 3 8 -7 0 -10 9 -22 20 -28 11 -6 19 -16 17 -23 -1
-7 8 -11 21 -11 19 1 21 -1 10 -15 -7 -9 -9 -13 -4 -9 5 4 15 0 23 -8 8 -8 18
-12 22 -9 5 2 7 -7 5 -20 -2 -21 0 -23 16 -15 15 8 17 6 13 -13 -4 -18 -3 -19
6 -7 9 13 11 13 11 -1 0 -8 16 -29 35 -46 19 -17 31 -34 27 -39 -4 -5 1 -2 11
5 15 12 17 12 11 -3 -3 -9 -1 -16 6 -16 6 0 8 -5 4 -12 -5 -9 -2 -8 9 1 15 12
17 12 11 -3 -4 -11 -1 -16 12 -16 14 0 16 -2 6 -9 -10 -6 -9 -10 7 -14 12 -3
20 -11 19 -17 -2 -7 4 -15 12 -17 13 -4 13 -3 0 6 -11 8 -11 11 -2 11 7 0 15
-7 18 -15 6 -14 8 -13 21 2 8 10 11 12 7 4 -5 -9 -3 -12 4 -7 7 4 12 14 12 22
0 8 7 14 15 14 8 0 15 6 15 14 0 7 8 20 18 27 16 13 16 13 2 -6 -14 -19 -14
-19 3 -6 9 7 17 22 17 33 0 18 2 19 17 7 9 -8 14 -9 10 -2 -9 14 21 45 35 37
7 -4 8 -2 4 4 -4 7 -2 12 4 12 6 0 8 5 5 10 -3 5 1 10 10 10 9 0 13 5 10 10
-6 9 7 14 27 11 4 0 4 7 1 16 -4 11 -3 14 5 9 7 -4 12 -1 12 9 0 9 4 14 8 11
5 -3 15 6 22 20 8 13 19 23 26 20 8 -3 11 0 8 8 -3 7 3 19 12 27 12 9 15 10
10 2 -4 -7 -5 -13 -1 -13 3 0 10 12 15 26 7 18 15 24 27 20 14 -6 14 -4 2 11
-12 15 -12 16 5 10 17 -7 17 -6 5 10 -9 11 -10 14 -1 9 8 -5 12 -1 12 11 0 15
2 16 10 3 7 -11 10 -6 10 20 0 28 3 32 11 20 9 -12 10 -10 6 8 -4 15 0 25 9
29 8 3 11 9 8 14 -3 5 1 9 8 9 9 0 9 3 -2 10 -13 8 -13 10 1 10 9 0 16 8 16
18 0 34 3 43 13 37 15 -9 12 2 -6 19 -14 15 -14 16 1 16 13 0 14 4 5 20 -6 11
-7 20 -2 20 4 0 8 18 8 39 0 26 -3 38 -10 34 -6 -4 -5 0 1 9 7 8 10 18 7 21
-12 12 -12 77 0 70 6 -4 2 4 -9 17 -11 13 -15 20 -8 17 6 -4 14 -3 18 3 3 5 1
10 -5 10 -6 0 -8 5 -4 13 6 9 5 9 -7 0 -13 -10 -16 -10 -17 0 0 6 -4 23 -8 36
-5 19 -4 22 6 16 9 -5 11 -4 6 3 -4 7 -14 12 -22 12 -8 0 -14 10 -14 26 0 17
-4 23 -12 18 -8 -5 -7 0 2 11 9 11 10 16 3 11 -8 -4 -13 -2 -13 4 0 7 -6 10
-14 7 -10 -4 -12 0 -9 14 4 15 0 22 -15 26 -12 3 -24 14 -27 24 -4 10 -13 19
-21 19 -8 0 -14 6 -14 14 0 14 -36 32 -52 28 -4 -1 -5 4 -2 12 3 8 0 17 -5 21
-6 3 -8 11 -5 17 4 7 2 8 -5 4 -9 -6 -9 -11 1 -23 12 -15 11 -15 -9 -3 -12 8
-20 17 -17 21 2 4 -1 11 -7 15 -8 4 -9 3 -5 -4 11 -18 -9 -14 -32 7 -12 10
-19 21 -15 24 7 8 -33 1 -46 -8 -6 -3 -14 3 -20 12 -6 10 -11 13 -11 6 0 -13
-40 -5 -40 8 0 5 8 6 18 2 9 -3 14 -3 10 1 -14 17 -81 16 -93 -1 -10 -13 -14
-13 -20 -3 -5 9 -4 11 3 6 7 -4 12 -2 12 3 0 6 -12 11 -26 11 -17 0 -23 -4
-18 -12 6 -10 5 -10 -7 -2 -12 10 -81 12 -99 4 -3 -1 -9 -2 -13 -1 -5 1 -6 -3
-2 -9 4 -7 11 -7 18 -2 15 12 47 11 47 -1 0 -5 -6 -7 -13 -4 -8 3 -20 1 -27
-3 -8 -5 -22 -4 -33 2 -12 6 -17 6 -13 0 9 -15 -20 -22 -33 -9 -9 9 -13 6 -17
-11 -4 -12 -10 -19 -15 -16 -5 3 -9 1 -9 -4 0 -6 -8 -8 -19 -5 -12 3 -24 -3
-34 -17 -8 -11 -21 -20 -28 -18 -8 2 -13 -2 -12 -9 3 -16 -34 -36 -49 -27 -7
5 -8 3 -3 -6 6 -10 4 -12 -10 -6 -15 5 -16 4 -6 -8 10 -12 8 -16 -9 -21 -11
-4 -17 -11 -14 -17 5 -8 1 -9 -11 -5 -14 6 -16 3 -12 -13 4 -16 2 -18 -13 -10
-15 8 -17 6 -13 -10 3 -12 0 -20 -6 -20 -7 0 -9 5 -5 12 4 7 3 8 -4 4 -7 -4
-12 -14 -12 -22 0 -8 -9 -14 -19 -14 -15 0 -18 -5 -13 -22 4 -17 2 -20 -15
-16 -17 4 -19 2 -15 -15 3 -14 1 -18 -6 -13 -7 4 -12 2 -12 -4 0 -7 -7 -10
-15 -6 -8 3 -14 2 -14 -2 3 -23 -14 -50 -29 -45 -10 4 -13 2 -8 -5 4 -8 -3
-16 -18 -22 -14 -5 -26 -12 -26 -15 0 -4 5 -3 10 0 6 3 10 1 10 -4 0 -6 -5
-11 -11 -11 -5 0 -7 -5 -3 -11 5 -8 1 -8 -14 0 -17 9 -19 8 -15 -8 6 -22 -12
-37 -23 -20 -5 8 -3 9 6 4 8 -5 11 -4 7 2 -4 6 -17 9 -30 8 -15 -2 -24 2 -24
11 0 11 3 11 16 1 14 -10 14 -10 3 5 -8 9 -20 14 -28 11 -10 -4 -12 0 -8 12 6
15 4 16 -15 5 -21 -11 -22 -10 -11 9 6 12 7 21 3 20 -20 -5 -41 14 -35 29 5
15 4 16 -13 2 -11 -9 -16 -10 -11 -2 4 7 1 15 -8 18 -9 3 -16 12 -16 20 0 8
-7 14 -16 14 -9 0 -18 9 -21 20 -5 19 -16 25 -37 21 -5 -1 -3 6 4 16 8 10 11
15 6 11 -9 -8 -36 13 -30 23 2 4 -4 6 -13 5 -10 0 -25 14 -36 36 -16 30 -23
35 -34 26 -11 -9 -12 -7 -7 7 5 13 4 16 -4 11 -7 -4 -12 -3 -12 3 0 5 -12 14
-27 20 -21 8 -22 10 -6 7 13 -2 26 1 30 6 3 6 2 8 -4 5 -5 -3 -22 0 -37 8 -18
10 -25 11 -21 2 4 -7 0 -4 -9 7 -8 10 -20 15 -27 10 -8 -4 -10 -3 -5 4 4 7 1
12 -7 12 -8 0 -28 7 -43 15 -16 8 -23 15 -15 15 8 0 11 3 8 6 -4 4 -13 1 -22
-6 -11 -9 -15 -9 -15 -1 0 8 -8 10 -20 6 -12 -4 -20 -2 -20 5 0 8 -6 8 -20 0
-16 -8 -20 -8 -18 2 2 7 10 16 18 19 8 3 -36 6 -98 5 -62 0 -115 -2 -117 -5z
m149 -10 c2 -3 -14 -6 -35 -7 -22 0 -35 3 -28 6 14 9 58 10 63 1z m1506 -3 c0
-11 -12 -10 -30 2 -12 7 -10 9 8 7 12 0 22 -5 22 -9z m-2086 -564 c3 -8 2 -12
-4 -9 -13 8 -8 -37 5 -48 6 -5 4 -7 -4 -5 -14 4 -22 42 -14 66 7 16 10 15 17
-4z m26 -174 c0 -5 -2 -10 -4 -10 -3 0 -8 5 -11 10 -3 6 -1 10 4 10 6 0 11 -4
11 -10z m650 -344 c0 -2 -8 -10 -17 -17 -16 -13 -17 -12 -4 4 13 16 21 21 21
13z"/>
<path d="M1687 2136 c-4 -10 -1 -13 8 -9 8 3 12 9 9 14 -7 12 -11 11 -17 -5z"/>
<path d="M2541 1954 c0 -11 3 -14 6 -6 3 7 2 16 -1 19 -3 4 -6 -2 -5 -13z"/>
<path d="M15 1780 c-3 -5 -2 -10 4 -10 5 0 13 5 16 10 3 6 2 10 -4 10 -5 0
-13 -4 -16 -10z"/>
<path d="M13 1730 c-1 -11 2 -20 7 -20 4 0 7 7 6 15 -3 23 -12 26 -13 5z"/>
<path d="M1282 1414 c-7 -8 -10 -20 -7 -27 4 -6 -1 -3 -9 7 -9 11 -16 16 -16
10 1 -11 30 -51 30 -41 0 5 6 2 14 -5 8 -7 12 -16 10 -19 -2 -3 3 -6 11 -6 8
0 12 4 9 9 -3 4 0 9 5 9 6 1 16 2 23 3 13 1 20 36 7 36 -5 0 -9 5 -9 11 0 5 6
7 13 3 7 -4 9 -3 4 2 -5 5 -12 9 -15 9 -4 0 -13 4 -21 9 -10 6 -12 5 -7 -2 4
-7 2 -12 -3 -12 -6 0 -11 5 -11 10 0 14 -13 12 -28 -6z"/>
<path d="M1041 1184 c-13 -13 -28 -21 -33 -18 -5 3 -2 -11 6 -31 15 -35 15
-37 -1 -24 -16 13 -17 12 -4 -3 7 -10 22 -18 32 -18 11 0 19 -4 19 -9 0 -5 8
-8 18 -6 9 1 16 10 16 19 -2 13 1 14 12 5 17 -14 16 -15 18 38 2 34 -2 44 -16
49 -11 3 -15 10 -11 17 4 7 -2 5 -12 -3 -11 -9 -16 -10 -11 -2 12 20 -7 12
-33 -14z"/>
<path d="M1527 1203 c-4 -3 -7 -11 -7 -17 0 -6 5 -4 10 4 5 8 10 11 10 5 0 -5
-12 -21 -26 -34 l-25 -24 23 -26 c13 -14 15 -19 6 -12 -12 9 -18 10 -18 2 0
-10 13 -15 33 -12 4 0 7 -4 7 -10 0 -8 6 -7 17 2 9 8 14 9 10 3 -3 -6 0 -11 7
-11 8 0 12 6 9 14 -4 9 0 11 11 7 11 -4 16 0 17 12 2 41 -3 79 -12 82 -5 2 -7
7 -5 11 3 4 -5 8 -17 8 -17 2 -19 0 -7 -7 13 -8 12 -10 -2 -10 -10 0 -18 5
-18 10 0 11 -13 13 -23 3z"/>
<path d="M1020 1190 c-8 -5 -10 -10 -5 -10 6 0 17 5 25 10 8 5 11 10 5 10 -5
0 -17 -5 -25 -10z"/>
<path d="M1787 968 c-10 -5 -15 -13 -12 -19 3 -5 -1 -6 -10 -3 -11 5 -18 0
-22 -15 -3 -11 -9 -18 -14 -15 -5 3 -6 -3 -2 -12 5 -13 3 -15 -8 -9 -8 5 -6
-1 5 -13 10 -12 23 -19 29 -15 5 3 7 1 3 -5 -13 -21 22 -41 54 -32 42 12 45
14 43 23 -2 4 2 7 8 7 8 0 7 6 -2 17 -12 14 -12 16 0 8 11 -6 13 -3 9 13 -4
16 -2 19 11 15 9 -3 1 4 -16 16 -18 11 -33 25 -33 30 0 14 -25 20 -43 9z m27
-6 c3 -5 -1 -9 -9 -9 -8 0 -12 4 -9 9 3 4 7 8 9 8 2 0 6 -4 9 -8z"/>
<path d="M790 960 c0 -5 3 -10 8 -13 4 -2 1 -2 -6 0 -8 2 -16 -6 -19 -17 -3
-11 -9 -18 -13 -15 -5 3 -11 1 -14 -4 -4 -5 -1 -13 5 -17 8 -5 9 -3 4 6 -6 9
-4 11 4 5 9 -5 10 -10 2 -18 -6 -6 -11 -16 -11 -21 0 -6 5 -4 10 4 7 11 10 11
10 2 0 -8 5 -10 13 -6 9 6 9 4 -1 -8 -11 -14 -10 -17 8 -23 12 -4 24 -4 27 -1
4 3 12 1 19 -5 10 -9 15 -7 20 5 3 9 9 14 13 12 3 -2 12 2 18 10 8 7 9 15 3
19 -5 3 -7 12 -3 20 3 8 -1 15 -8 15 -7 0 -9 3 -6 6 4 4 13 1 22 -6 13 -11 14
-10 9 4 -3 9 -12 16 -19 16 -8 0 -17 4 -20 10 -4 6 1 7 12 3 15 -6 16 -5 3 8
-14 16 -90 23 -90 9z"/>
<path d="M1274 958 c-5 -7 -3 -8 7 -3 12 8 12 6 0 -9 -8 -9 -20 -15 -28 -12
-8 3 -11 2 -8 -3 3 -5 1 -12 -4 -15 -14 -9 -7 -32 15 -53 11 -10 13 -13 4 -8
-13 9 -13 8 -1 -8 8 -9 16 -15 19 -13 2 3 13 1 23 -5 14 -7 19 -6 19 2 0 8 4
8 15 -1 12 -10 15 -9 15 4 0 10 4 15 9 11 5 -3 12 4 16 15 4 11 11 17 17 14 7
-4 8 -2 4 5 -4 6 -11 9 -15 7 -4 -3 -8 2 -8 10 0 9 6 13 16 9 12 -4 11 -1 -3
9 -10 8 -15 19 -11 25 6 11 -7 15 -34 12 -7 -2 -10 2 -6 8 3 6 0 11 -9 11 -8
0 -17 -6 -19 -12 -4 -10 -6 -10 -6 0 -1 15 -17 16 -27 0z"/>
<path d="M1041 717 c-4 -4 -17 -9 -29 -10 -17 -1 -19 -4 -9 -16 8 -10 8 -13 1
-8 -8 5 -13 -6 -16 -33 -3 -31 0 -39 10 -35 7 2 10 1 7 -5 -3 -5 5 -14 17 -21
13 -7 29 -19 36 -28 12 -14 13 -14 8 1 -4 13 -1 15 12 11 9 -4 21 -11 25 -17
5 -7 7 -3 5 9 -2 14 2 20 14 19 11 -1 15 5 13 18 -3 15 0 18 12 14 14 -6 14
-4 2 11 -12 15 -12 16 2 11 9 -4 16 -1 16 8 0 7 -4 11 -9 8 -7 -5 -12 10 -9
29 1 5 -3 6 -9 2 -5 -3 -10 1 -10 9 0 9 -7 16 -16 16 -8 0 -13 4 -10 9 7 11
-52 9 -63 -2z"/>
<path d="M1506 718 c6 -9 -20 -50 -27 -43 -3 2 -5 -9 -4 -24 0 -16 3 -27 6
-25 4 2 10 -3 13 -12 3 -8 2 -12 -3 -9 -5 3 -13 1 -16 -5 -4 -6 -3 -10 2 -9
22 4 43 -2 38 -11 -8 -12 5 -13 25 -1 8 6 19 7 25 3 34 -22 72 1 62 38 -4 16
-2 18 12 10 13 -6 18 -5 18 5 0 8 -4 12 -8 9 -4 -2 -10 0 -13 5 -4 5 -2 12 4
16 5 3 10 11 10 17 0 6 -7 5 -17 -3 -11 -10 -14 -10 -9 -1 5 8 1 12 -11 12
-14 0 -15 2 -4 9 11 7 11 10 0 17 -21 13 -40 14 -33 2 5 -7 2 -8 -7 -2 -18 11
-69 12 -63 2z m109 -117 c3 -5 2 -12 -3 -15 -5 -3 -9 1 -9 9 0 17 3 19 12 6z"/>
<path d="M1476 698 c3 -5 10 -6 15 -3 13 9 11 12 -6 12 -8 0 -12 -4 -9 -9z"/>
<path d="M1547 573 c-12 -12 -7 -19 12 -19 15 0 17 3 9 13 -12 15 -13 15 -21
6z"/>
<path d="M1300 490 c0 -5 -6 -9 -12 -7 -7 1 -12 -3 -11 -9 1 -7 -6 -10 -18 -7
-13 4 -19 1 -17 -8 2 -8 -2 -13 -9 -12 -9 2 -10 -4 -4 -20 5 -13 6 -30 1 -37
-10 -16 -2 -42 11 -34 5 3 9 -2 9 -10 0 -9 7 -16 16 -16 9 0 12 -5 8 -12 -5
-8 0 -7 11 2 10 8 16 10 12 4 -4 -7 0 -15 9 -18 10 -4 13 -2 8 6 -5 7 -2 9 8
6 8 -4 19 2 26 13 7 11 18 16 27 12 10 -3 15 0 13 8 -2 8 2 13 9 12 12 -3 12
14 0 34 -4 6 -1 14 5 17 10 5 10 7 1 12 -7 3 -13 14 -13 25 0 17 -4 20 -25 19
-3 -1 -13 6 -21 15 -17 17 -44 20 -44 5z m30 -10 c0 -5 -2 -10 -4 -10 -3 0 -8
5 -11 10 -3 6 -1 10 4 10 6 0 11 -4 11 -10z"/>
<path d="M1357 333 c-4 -3 -7 -11 -7 -17 0 -6 5 -5 12 2 6 6 9 14 7 17 -3 3
-9 2 -12 -2z"/>
<path d="M690 300 c0 -5 5 -10 11 -10 5 0 7 5 4 10 -3 6 -8 10 -11 10 -2 0 -4
-4 -4 -10z"/>
<path d="M1880 300 c-12 -7 -10 -9 7 -7 12 0 19 5 17 9 -6 10 -6 10 -24 -2z"/>
<path d="M1950 300 c0 -5 5 -10 10 -10 6 0 10 5 10 10 0 6 -4 10 -10 10 -5 0
-10 -4 -10 -10z"/>
</g>
</svg>
